# xmcd CD database file
#
# Track frame offsets:
#	150
#	17957
#	48943
#	66787
#	108292
#	121945
#	162425
#
# Disc length: 2384 seconds
#
# Revision: 1
# Processed by: cddbd v1.5.2PL0 Copyright (c) Steve Scherf et al.
# Submitted via: CDex 1.51
#
DISCID=56094e07
DTITLE=Hauschka - Snowflakes and Car Wrecks
DYEAR=2009
DGENRE=Post Rock
TTITLE0=Ginsterweg
TTITLE1=Elsblume
TTITLE2=Wonder
TTITLE3=Tanz
TTITLE4=Kindelsberg
TTITLE5=Hauberg
TTITLE6=Tagtraum
EXTD=YEAR: 2009
EXTT0=
EXTT1=
EXTT2=
EXTT3=
EXTT4=
EXTT5=
EXTT6=
PLAYORDER=
